<?xml version="1.0" encoding="UTF-8"?>
<!DOCTYPE svg PUBLIC "-//W3C//DTD SVG 1.1//EN" "http://www.w3.org/Graphics/SVG/1.1/DTD/svg11.dtd">
<!-- Creator: CorelDRAW -->
<svg xmlns="http://www.w3.org/2000/svg" xml:space="preserve" width="131.646mm" height="146.782mm" version="1.1" style="shape-rendering:geometricPrecision; text-rendering:geometricPrecision; image-rendering:optimizeQuality; fill-rule:evenodd; clip-rule:evenodd"
viewBox="0 0 12374.79 13797.59"
 xmlns:xlink="http://www.w3.org/1999/xlink"
 xmlns:xodm="http://www.corel.com/coreldraw/odm/2003">
 <defs>
  <style type="text/css">
   <![CDATA[
    .str0 {stroke:#868787;stroke-width:66.33;stroke-miterlimit:22.9256}
    .fil0 {fill:none}
    .fil1 {fill:#BBC2D4}
   ]]>
  </style>
 </defs>
 <g id="Capa_x0020_1">
  <metadata id="CorelCorpID_0Corel-Layer"/>
  <line class="fil0 str0" x1="6187.4" y1="13531.7" x2="6187.4" y2= "6676.37" />
  <path class="fil0 str0" d="M6162.76 113.7l5946.14 3166.83 -254.73 6515.75 -5666.77 3735.41m5921.5 -10251.17l-5921.5 3395.84m24.63 -6562.67l-5946.14 3166.83 254.73 6515.75 5666.78 3735.41m-5921.51 -10251.17l5921.51 3395.84"/>
  <path class="fil1" d="M265.89 3014.65c-146.82,0 -265.89,119.07 -265.89,265.89 0,146.83 119.07,265.9 265.89,265.9 146.83,0 265.9,-119.07 265.9,-265.9 0,-146.82 -119.07,-265.89 -265.9,-265.89zm254.73 6515.75c-146.83,0 -265.9,119.07 -265.9,265.89 0,146.83 119.07,265.89 265.9,265.89 146.82,0 265.89,-119.06 265.89,-265.89 0,-146.82 -119.07,-265.89 -265.89,-265.89zm5666.78 3735.4c-146.83,0 -265.9,119.07 -265.9,265.9 0,146.82 119.07,265.89 265.9,265.89 146.82,0 265.89,-119.07 265.89,-265.89 0,-146.83 -119.07,-265.9 -265.89,-265.9zm5666.77 -3735.4c-146.82,0 -265.89,119.07 -265.89,265.89 0,146.83 119.07,265.89 265.89,265.89 146.83,0 265.9,-119.06 265.9,-265.89 0,-146.82 -119.07,-265.89 -265.9,-265.89zm-5666.77 -9530.4c-146.83,0 -265.9,119.07 -265.9,265.89 0,146.83 119.07,265.9 265.9,265.9 146.82,0 265.89,-119.07 265.89,-265.9 0,-146.82 -119.07,-265.89 -265.89,-265.89zm0 6271.43c-146.83,0 -265.9,119.07 -265.9,265.89 0,146.83 119.07,265.9 265.9,265.9 146.82,0 265.89,-119.07 265.89,-265.9 0,-146.82 -119.07,-265.89 -265.89,-265.89zm5921.5 -3256.78c-146.83,0 -265.9,119.07 -265.9,265.89 0,146.83 119.07,265.9 265.9,265.9 146.82,0 265.89,-119.07 265.89,-265.9 0,-146.82 -119.07,-265.89 -265.89,-265.89z"/>
 </g>
</svg>
